<svg id="Capa_1" data-name="Capa 1" xmlns="http://www.w3.org/2000/svg" viewBox="0 0 296.53 100"><defs><style>.cls-1,.cls-2{fill:#fff;}.cls-2{font-size:36.76px;font-family:Helvetica Neue LT Std;}</style></defs><title>by_MS_white</title><path class="cls-1" d="M354,287.57V256.06c0-8.7,7.15-15.85,16.62-15.85a16.23,16.23,0,0,1,13.53,6.57,16.23,16.23,0,0,1,13.53-6.57c9.47,0,16.62,7.15,16.62,15.85v31.51h-8.5V258c0-5.9-3.29-9.66-8.31-9.66-5.51,0-9.08,3.09-9.08,11v28.23h-8.51V259.34c0-7.93-3.58-11-9.09-11-5,0-8.31,3.77-8.31,9.66v29.58H354Z" transform="translate(-308.33 -228.21)"/><path class="cls-1" d="M460.38,287.57v-26.1c0-8.7-7.34-13.14-15.08-13.14-9.37,0-15.27,7.44-15.27,16.24,0,8.6,6.28,15.85,15.17,15.85,4.83,0,8.8-2.71,11.69-6.38v10.05c-3.38,2.51-6.67,4.44-12.56,4.44-13.34,0-22.81-11-22.81-24.64,0-13.24,9.08-23.68,24-23.68,14.3,0,23.39,8.7,23.39,22v25.32h-8.51Z" transform="translate(-308.33 -228.21)"/><path class="cls-1" d="M522.63,231.7V263c0,15.27-9.76,25.52-23.39,25.52-15.08,0-24-11.59-24-25.32,0-13,10.44-23,22.33-23a26,26,0,0,1,13.15,3.29v8.89c-3.09-2.13-7.83-4.06-11.69-4.06-9.18,0-15.27,6.38-15.27,15.94s6.38,16.14,15.46,16.14c8.12,0,14.88-6.19,14.88-18.94V231.7h8.51Z" transform="translate(-308.33 -228.21)"/><path class="cls-1" d="M594.73,287.57v-26.1c0-8.7-7.34-13.14-15.07-13.14-9.38,0-15.27,7.44-15.27,16.24,0,8.6,6.28,15.85,15.18,15.85,4.83,0,8.8-2.71,11.69-6.38v10.05c-3.38,2.51-6.67,4.44-12.56,4.44-13.34,0-22.81-11-22.81-24.64,0-13.24,9.08-23.68,24-23.68,14.3,0,23.39,8.7,23.39,22v25.32h-8.51Z" transform="translate(-308.33 -228.21)"/><path class="cls-1" d="M554.33,248.33c-7.73,0-15.08,4.44-15.08,13.14v26.1h-8.51V262.24c0-13.34,9.08-22,23.39-22Z" transform="translate(-308.33 -228.21)"/><path class="cls-1" d="M353.83,325.82h11c4.31,0,6-1.66,6-4.15,0-8.2-17-3.42-17-12.61,0-3.22,2.23-6,6.28-6h11.05V305h-10.9a4,4,0,0,0-4.26,4c0,7.27,17,2.65,17,12.35,0,4.31-3.17,6.33-8.62,6.33H353.83v-1.87Z" transform="translate(-308.33 -228.21)"/><path class="cls-1" d="M413.56,303.09V305h-8.72v15.88c0,3.11,1.87,5,4.77,5h3.95v1.87H410c-4.67,0-7.16-2.7-7.16-7.06V303.09h10.69Z" transform="translate(-308.33 -228.21)"/><path class="cls-1" d="M448.17,303.09v14.74c0,5.14,3.58,8.51,7.89,8.51s7.89-3.37,7.89-8.51V303.09h2v15c0,6.07-4.36,10.12-9.86,10.12s-9.86-4-9.86-10.12v-15h2Z" transform="translate(-308.33 -228.21)"/><path class="cls-1" d="M517.94,300.6v14.79c0,7.42-5.29,12.82-12,12.82s-12-5.4-12-12.82,5.29-12.82,12-12.82a11.52,11.52,0,0,1,7.68,3.11V308a10,10,0,0,0-7.68-3.58c-5,0-9.91,4.62-9.91,10.95s4.93,11,9.91,11c5.92,0,10-5.24,10-11V300.6h2Z" transform="translate(-308.33 -228.21)"/><path class="cls-1" d="M547.44,327.69v-24.6h2v24.6h-2Z" transform="translate(-308.33 -228.21)"/><path class="cls-1" d="M604.86,315.39a12.46,12.46,0,1,1-12.45-12.82A12.6,12.6,0,0,1,604.86,315.39Zm-22.83,0c0,5.71,4.36,11,10.38,11s10.38-5.24,10.38-11-4.36-10.95-10.38-10.95S582,309.69,582,315.39Z" transform="translate(-308.33 -228.21)"/><text class="cls-2" transform="translate(0 30.51)">by</text></svg>