<svg xmlns="http://www.w3.org/2000/svg" viewBox="0 0 336 120"><defs><style>.cls-1{fill:#fff;}</style></defs><title>Recurso 1</title><g id="Capa_2" data-name="Capa 2"><g id="Capa_1-2" data-name="Capa 1"><path class="cls-1" d="M154.68,87.27a11.82,11.82,0,0,0-8.25-3.87,10,10,0,0,0,0,20,9,9,0,0,0,9.39-8.4h-9V91.8h12.51V94a12.6,12.6,0,0,1-12.57,12.63h-.39a13.23,13.23,0,1,1,10.56-21.84Z"/><path class="cls-1" d="M198,93.15a6,6,0,0,0,3-5.7,7.44,7.44,0,0,0-7.59-7.26h-.3a8.22,8.22,0,0,0-8.49,9v16.89h3.45V94.89h5.31A4,4,0,0,1,198,99v7h3.45V99A5.22,5.22,0,0,0,198,93.15Zm-6-1.35h-4.2V88.32a4.74,4.74,0,0,1,4.55-4.92h.49a4.26,4.26,0,0,1,4.44,4.07h0a4.47,4.47,0,0,1-4.62,4.29Z"/><path class="cls-1" d="M239.13,80.25a13.23,13.23,0,1,1-.15,0Zm0,23.25a10,10,0,1,0-9.78-10.26v.24a9.78,9.78,0,0,0,9.63,9.93h.15Z"/><path class="cls-1" d="M280.41,80.61v16.8a5.1,5.1,0,1,0,10,0V80.61H294V97.8a8.46,8.46,0,0,1-16.92,0h0V80.61h3.33Z"/><path class="cls-1" d="M327.18,80.25a8.31,8.31,0,0,0-8.22,8.4h0v17.7h3.45V96.69h6a7.68,7.68,0,0,0,7.2-8.13h0a8.13,8.13,0,0,0-8-8.28h-.48Zm.27,13.17h-5V88.65a4.89,4.89,0,1,1,9.75-.27,4.59,4.59,0,0,1-4.2,4.95h-.57Z"/><path class="cls-1" d="M64,9.72c21,6.51,30.6,31,23,47.55l-14.7,32c-2.61,5.85-11.82,8.67-17,0L36.36,48a4.68,4.68,0,0,1,8.25-4.41l.24.51L63.78,85.35,77.64,55.14A27.51,27.51,0,0,0,52.41,16.35C31,16.35,17.28,40.86,17.28,59.28c0,21.51,17.28,46.68,46.5,46.68,29.67,0,46.53-25.17,46.53-46.68C110.34,30.84,85.68,9.81,64,9.72Z"/><path class="cls-1" d="M60,0a60,60,0,1,0,60,60A60,60,0,0,0,60,0Zm3.78,113.43a52.56,52.56,0,0,1-51.42-29,53.67,53.67,0,0,1,4.08-55.77,52.44,52.44,0,0,1,22.62-18H39A53.64,53.64,0,0,1,102,27a51.81,51.81,0,0,1,11.37,32.4A53.73,53.73,0,0,1,63.78,113.43Z"/><path class="cls-1" d="M132.51,21.21,146,60.84h0l13-39.63h6.66l-13.92,43.2C150.3,68.79,148.53,70,146,70s-4.26-1.23-5.76-5.61l-14.58-43.2Z"/><path class="cls-1" d="M176.19,21.21V52.74c0,6.51,3.21,11.25,9.39,11.25S195,59.25,195,52.74V21.21h6.45V53.43a15.9,15.9,0,1,1-31.74,0V21.21h6.48Z"/><path class="cls-1" d="M237.93,47.43H214.68a17.16,17.16,0,0,0,17,15.78h6.24v6H232.8a24,24,0,1,1,0-48h5.07v6h-4.32c-12.54,0-18.57,9.33-18.87,14.13h23.19v6Z"/><path class="cls-1" d="M253.29,21.21V52.14c0,7.41,3,11,9.75,11h6.24v6h-7.2a14.58,14.58,0,0,1-15.21-15.51V21.21Z"/><path class="cls-1" d="M268.44,21.21h30.24v6h-12v42h-6.45v-42h-12v-6Z"/><path class="cls-1" d="M319.53,20.4c-9.33,0-16.38,7-16.38,18.39V69.24h6.45V47.43h19.89V69.24H336V38.79C336,27.39,328.83,20.4,319.53,20.4Zm9.93,21H309.57v-3c0-7.53,4-12,10-12s9.93,4.38,9.93,12Z"/></g></g></svg>