<svg id="Capa_1" data-name="Capa 1" xmlns="http://www.w3.org/2000/svg" viewBox="0 0 111.98 40"><defs><style>.cls-1{fill:#782834;}</style></defs><title>logo_vueltagroup</title><path class="cls-1" d="M51.56,29.09a3.94,3.94,0,0,0-2.75-1.29,3.34,3.34,0,0,0,0,6.67,3,3,0,0,0,3.13-2.8h-3V30.6h4.17v0.73a4.2,4.2,0,0,1-4.19,4.21H48.79a4.41,4.41,0,1,1,3.52-7.28Z"/><path class="cls-1" d="M66,31.05a2,2,0,0,0,1-1.9,2.48,2.48,0,0,0-2.53-2.42h-0.1a2.74,2.74,0,0,0-2.83,3v5.63h1.15V31.63h1.77A1.33,1.33,0,0,1,66,33v2.34h1.15V33A1.74,1.74,0,0,0,66,31.05ZM64,30.6h-1.4V29.44a1.58,1.58,0,0,1,1.52-1.64h0.16a1.42,1.42,0,0,1,1.48,1.36v0a1.49,1.49,0,0,1-1.54,1.43Z"/><path class="cls-1" d="M79.71,26.75a4.41,4.41,0,1,1-4.46,4.41A4.41,4.41,0,0,1,79.71,26.75Zm0,7.75a3.34,3.34,0,1,0-3.26-3.42s0,0.05,0,.08a3.26,3.26,0,0,0,3.21,3.31h0.05v0Z"/><path class="cls-1" d="M93.47,26.87v5.6a1.7,1.7,0,1,0,3.35,0v-5.6H98V32.6a2.82,2.82,0,1,1-5.64,0V26.87h1.14Z"/><path class="cls-1" d="M109.06,26.75a2.77,2.77,0,0,0-2.74,2.8q0,0.1,0,.2v5.7h1.15V32.23h2a2.56,2.56,0,0,0,2.4-2.71h0a2.71,2.71,0,0,0-2.66-2.76h-0.16Zm0.09,4.39h-1.67V29.55a1.63,1.63,0,1,1,3.25-.09,1.53,1.53,0,0,1-1.4,1.65h-0.19v0Z"/><path class="cls-1" d="M21.34,3.24c7,2.17,10.2,10.32,7.66,15.85L24.1,29.75c-0.87,1.95-3.94,2.89-5.67,0L12.12,16a1.56,1.56,0,0,1,2.75-1.47l0.08,0.17,6.31,13.75,4.62-10.07A9.17,9.17,0,0,0,17.47,5.45c-7.15,0-11.71,8.17-11.71,14.31,0,7.17,5.76,15.56,15.5,15.56,9.89,0,15.51-8.39,15.51-15.56C36.78,10.28,28.56,3.27,21.34,3.24Z"/><path class="cls-1" d="M20,0A20,20,0,1,0,40,20,20,20,0,0,0,20,0Zm1.26,37.81A17.52,17.52,0,0,1,4.12,28.16,17.89,17.89,0,0,1,5.48,9.57a17.48,17.48,0,0,1,7.54-6H13A17.88,17.88,0,0,1,34,9a17.27,17.27,0,0,1,3.79,10.8A17.91,17.91,0,0,1,21.26,37.81Z"/><path class="cls-1" d="M44.17,7.07l4.5,13.21h0L53,7.07h2.22l-4.64,14.4c-0.48,1.46-1.07,1.87-1.92,1.87s-1.42-.41-1.92-1.87L41.88,7.07h2.29Z"/><path class="cls-1" d="M58.73,7.07V17.58c0,2.17,1.07,3.75,3.13,3.75S65,19.75,65,17.58V7.07h2.15V17.81a5.3,5.3,0,1,1-10.58,0V7.07h2.15Z"/><path class="cls-1" d="M79.31,15.81H71.56a5.72,5.72,0,0,0,5.65,5.26h2.08v2H77.6a8,8,0,0,1,0-16h1.69v2H77.85c-4.18,0-6.19,3.11-6.29,4.71h7.73v2Z"/><path class="cls-1" d="M84.43,7.07V17.38c0,2.47,1,3.68,3.25,3.68h2.08v2h-2.4a4.86,4.86,0,0,1-5.07-5.17V7.07h2.14Z"/><path class="cls-1" d="M89.48,7.07H99.56v2h-4v14H93.41v-14h-4v-2h0.07Z"/><path class="cls-1" d="M106.51,6.8c-3.11,0-5.46,2.33-5.46,6.13V23.08h2.15V15.81h6.63v7.27H112V12.93C112,9.13,109.61,6.8,106.51,6.8Zm3.31,7h-6.63v-1c0-2.51,1.35-4,3.32-4s3.31,1.46,3.31,4v1Z"/></svg>